<svg width="198" height="49" fill="none" xmlns="http://www.w3.org/2000/svg"><rect x="1" y="1" width="196" height="47" rx="3" fill="#000638"/><path d="M28.33 24.146c-.467 0-.933.07-1.38.209a4.7 4.7 0 0 0 1.38 9.198 4.88 4.88 0 0 0 1.387-.208 4.707 4.707 0 0 0-1.387-9.198" fill="#80829B"/><path d="M27.037 26.173a3.593 3.593 0 1 1-6.85 2.174 3.593 3.593 0 0 1 6.85-2.174zM37.213 37.443a3.521 3.521 0 1 1-6.73 2.071 3.521 3.521 0 0 1 6.73-2.072zM15.445 32.238a2.429 2.429 0 1 0-.006 4.858 2.429 2.429 0 0 0 .006-4.858" fill="#fff"/><path d="M37.881 27.89a1.797 1.797 0 1 0 .532 3.514 1.797 1.797 0 0 0-.532-3.513" fill="#CCCDD7"/><path d="M18.578 13.97a3.996 3.996 0 1 0 .012 7.991 3.996 3.996 0 0 0-.012-7.99" fill="#80829B"/><path d="M34.618 7a7.467 7.467 0 0 0-.043 14.933A7.467 7.467 0 0 0 34.618 7" fill="#CCCDD7"/><path d="M41.898 11.204a3.083 3.083 0 1 0 .008 6.166 3.083 3.083 0 1 0-.008-6.166M58.495 29.5h-2.344V18.125h2.344V29.5zm4.11-8.453.07.976c.604-.755 1.414-1.132 2.43-1.132.895 0 1.562.263 2 .789.437.526.661 1.312.671 2.36v5.46H65.52v-5.406c0-.48-.105-.826-.313-1.04-.208-.218-.555-.327-1.039-.327-.635 0-1.112.27-1.43.812V29.5H60.48v-8.453h2.126zm10.406 6.789c.416 0 .755-.115 1.015-.344.26-.229.396-.534.407-.914h2.117a2.916 2.916 0 0 1-.469 1.578c-.307.474-.73.844-1.266 1.11-.53.26-1.12.39-1.765.39-1.209 0-2.162-.383-2.86-1.148-.697-.771-1.046-1.834-1.046-3.188v-.148c0-1.302.346-2.341 1.039-3.117.692-.776 1.643-1.164 2.851-1.164 1.057 0 1.904.302 2.54.906.64.599.965 1.398.976 2.398h-2.117c-.01-.437-.146-.791-.407-1.062-.26-.276-.604-.414-1.03-.414-.527 0-.925.192-1.196.578-.266.38-.399 1-.399 1.86v.234c0 .87.133 1.494.399 1.875.265.38.67.57 1.21.57zm7.21 1.664h-2.265v-12h2.266v12zm6.93-.86c-.557.678-1.328 1.016-2.312 1.016-.906 0-1.6-.26-2.078-.781-.474-.52-.716-1.284-.727-2.29v-5.538h2.258v5.46c0 .881.401 1.321 1.203 1.321.766 0 1.292-.265 1.578-.797v-5.984h2.266V29.5h-2.125l-.063-.86zm8.47-1.476c0-.276-.139-.492-.415-.648-.27-.162-.708-.305-1.312-.43-2.01-.422-3.016-1.276-3.016-2.563 0-.75.31-1.375.93-1.875.625-.505 1.44-.757 2.445-.757 1.073 0 1.93.252 2.57.757.646.506.969 1.162.969 1.97h-2.258a1.08 1.08 0 0 0-.312-.798c-.209-.213-.534-.32-.977-.32-.38 0-.674.086-.883.258a.814.814 0 0 0-.312.656c0 .25.117.453.351.61.24.15.641.283 1.204.398.562.11 1.036.234 1.421.375 1.193.437 1.79 1.195 1.79 2.273 0 .771-.331 1.396-.993 1.875-.661.474-1.515.711-2.562.711-.709 0-1.339-.125-1.89-.375-.548-.255-.977-.601-1.29-1.039a2.432 2.432 0 0 1-.469-1.43h2.14c.022.401.17.709.446.922.276.214.646.32 1.11.32.432 0 .757-.08.976-.241a.773.773 0 0 0 .336-.649zm6.038 2.336h-2.265v-8.453h2.265V29.5zm-2.398-10.64c0-.34.112-.618.336-.837.229-.218.539-.328.929-.328.386 0 .693.11.922.328.229.22.344.498.344.836a1.1 1.1 0 0 1-.352.844c-.229.219-.533.328-.914.328-.38 0-.687-.11-.921-.328-.23-.219-.344-.5-.344-.844zm3.914 6.335c0-.838.161-1.586.484-2.242a3.556 3.556 0 0 1 1.391-1.523c.609-.36 1.315-.54 2.117-.54 1.141 0 2.07.35 2.789 1.047.724.698 1.128 1.646 1.211 2.844l.016.578c0 1.297-.362 2.339-1.086 3.125-.724.782-1.696 1.172-2.914 1.172-1.219 0-2.193-.39-2.922-1.172-.724-.78-1.086-1.843-1.086-3.187v-.102zm2.258.164c0 .802.151 1.417.453 1.844.302.422.734.633 1.297.633.546 0 .974-.208 1.281-.625.307-.422.461-1.094.461-2.016 0-.786-.154-1.396-.461-1.828-.307-.432-.74-.648-1.297-.648-.552 0-.979.216-1.281.648-.302.427-.453 1.091-.453 1.992zm9.218-4.312.071.976c.604-.755 1.414-1.132 2.429-1.132.896 0 1.563.263 2 .789.438.526.662 1.312.672 2.36v5.46h-2.258v-5.406c0-.48-.104-.826-.312-1.04-.208-.218-.555-.327-1.039-.327-.636 0-1.112.27-1.43.812V29.5h-2.258v-8.453h2.125zm19.953 4.664c-.088 1.224-.541 2.187-1.359 2.89-.812.704-1.885 1.055-3.219 1.055-1.458 0-2.606-.49-3.445-1.468-.833-.985-1.25-2.334-1.25-4.047v-.696c0-1.093.193-2.057.578-2.89.386-.834.935-1.472 1.649-1.914.718-.448 1.552-.672 2.5-.672 1.312 0 2.369.351 3.171 1.054.803.704 1.266 1.69 1.391 2.961h-2.344c-.057-.734-.263-1.265-.617-1.593-.349-.334-.883-.5-1.601-.5-.782 0-1.368.28-1.758.843-.386.558-.584 1.425-.594 2.602v.86c0 1.228.185 2.127.555 2.695.375.567.963.851 1.765.851.724 0 1.263-.164 1.618-.492.359-.333.565-.846.617-1.54h2.343zm1.04-.516c0-.838.161-1.586.484-2.242a3.55 3.55 0 0 1 1.391-1.523c.609-.36 1.315-.54 2.117-.54 1.14 0 2.07.35 2.789 1.047.724.698 1.127 1.646 1.211 2.844l.015.578c0 1.297-.362 2.339-1.086 3.125-.724.782-1.695 1.172-2.914 1.172-1.218 0-2.192-.39-2.922-1.172-.723-.78-1.085-1.843-1.085-3.187v-.102zm2.257.164c0 .802.151 1.417.453 1.844.303.422.735.633 1.297.633.547 0 .974-.208 1.282-.625.307-.422.461-1.094.461-2.016 0-.786-.154-1.396-.461-1.828-.308-.432-.74-.648-1.297-.648-.552 0-.979.216-1.282.648-.302.427-.453 1.091-.453 1.992zm9.219-4.312.07.976c.605-.755 1.414-1.132 2.43-1.132.896 0 1.563.263 2 .789.438.526.662 1.312.672 2.36v5.46h-2.258v-5.406c0-.48-.104-.826-.312-1.04-.209-.218-.555-.327-1.039-.327-.636 0-1.112.27-1.43.812V29.5h-2.258v-8.453h2.125zm8.969 0 .07.976c.604-.755 1.414-1.132 2.43-1.132.896 0 1.562.263 2 .789.437.526.661 1.312.672 2.36v5.46h-2.258v-5.406c0-.48-.104-.826-.313-1.04-.208-.218-.554-.327-1.039-.327-.635 0-1.112.27-1.429.812V29.5h-2.258v-8.453h2.125zm10.781 8.61c-1.239 0-2.25-.381-3.031-1.141-.776-.76-1.164-1.774-1.164-3.04v-.218c0-.85.164-1.607.492-2.274.328-.672.792-1.187 1.391-1.547.604-.364 1.291-.546 2.062-.546 1.156 0 2.065.364 2.727 1.093.666.73 1 1.763 1 3.102v.922h-5.383c.073.552.292.995.656 1.328.37.333.836.5 1.399.5.869 0 1.549-.315 2.039-.945l1.109 1.242c-.339.479-.797.854-1.375 1.125a4.55 4.55 0 0 1-1.922.398zm-.258-6.938c-.448 0-.812.15-1.093.453-.276.302-.454.734-.532 1.297h3.141v-.18c-.01-.5-.146-.885-.406-1.156-.261-.276-.631-.414-1.11-.414zm8.539 5.117c.417 0 .756-.115 1.016-.344.26-.229.396-.534.406-.914h2.117a2.915 2.915 0 0 1-.468 1.578 3.127 3.127 0 0 1-1.266 1.11c-.531.26-1.12.39-1.766.39-1.208 0-2.161-.383-2.859-1.148-.698-.771-1.047-1.834-1.047-3.188v-.148c0-1.302.347-2.341 1.039-3.117.693-.776 1.643-1.164 2.852-1.164 1.057 0 1.903.302 2.539.906.64.599.966 1.398.976 2.398h-2.117c-.01-.437-.146-.791-.406-1.062-.26-.276-.604-.414-1.031-.414-.526 0-.925.192-1.196.578-.265.38-.398 1-.398 1.86v.234c0 .87.133 1.494.398 1.875.266.38.67.57 1.211.57zm7.532-8.867v2.078h1.445v1.656h-1.445v4.219c0 .312.06.536.179.672.12.135.349.203.688.203.25 0 .471-.018.664-.055v1.711a4.652 4.652 0 0 1-1.367.203c-1.584 0-2.391-.8-2.422-2.398v-4.555h-1.235v-1.656h1.235v-2.078h2.258z" fill="#fff"/><rect x="1" y="1" width="196" height="47" rx="3" stroke="#000638" stroke-width="2"/></svg>
