<svg width="35" height="40" viewBox="0 0 35 40" fill="none" xmlns="http://www.w3.org/2000/svg">
<path d="M17.3207 0L0 9.99952V30.0005L17.3207 40L34.6414 30.0005V9.99952L17.3207 0Z" fill="#000090"/>
<path d="M28.838 13.3508L17.3223 6.70117L5.80469 13.3508V26.6483L17.3223 33.2999L28.838 26.6483V13.3508Z" fill="white"/>
<path d="M22.2724 22.8579V17.1395L17.3198 14.2803L12.3672 17.1395V22.8579L17.3198 25.719L22.2724 22.8579Z" fill="#E0000F"/>
<path d="M17.3324 0L0 10.0063V30.0207L17.2919 40L34.6647 30.0207V10.0063L17.3324 0Z" fill="#000090"/>
<path d="M22.2899 17.1532H28.8575V13.3602L17.334 6.70605L5.80859 13.3602V26.6666L17.334 33.3227L28.8575 26.6666V22.8755H22.2899V17.1532Z" fill="white"/>
<path d="M22.2869 22.8734V17.1512L17.331 14.29L12.375 17.1512V22.8734L17.331 25.7365L22.2869 22.8734Z" fill="#E0000F"/>
</svg>
