<svg width="147" height="40" viewBox="0 0 147 40" fill="none" xmlns="http://www.w3.org/2000/svg">
<path d="M17.3324 0L0 10.0063V30.0207L17.2919 40L34.6647 30.0207V10.0063L17.3324 0Z" fill="#000090"/>
<path d="M22.2899 17.1532H28.8574V13.3602L17.334 6.70605L5.80859 13.3602V26.6666L17.334 33.3227L28.8574 26.6666V22.8755H22.2899V17.1532Z" fill="white"/>
<path d="M22.2869 22.8734V17.1512L17.331 14.29L12.375 17.1512V22.8734L17.331 25.7365L22.2869 22.8734Z" fill="#E0000F"/>
<path d="M49.3361 25.592C47.0001 25.592 45.3201 23.752 45.3201 21.4C45.3201 19.064 47.0001 17.208 49.3361 17.208C50.7441 17.208 51.8801 17.896 52.5841 18.904L54.0561 17.768C53.0161 16.392 51.3681 15.48 49.3361 15.48C45.8161 15.48 43.4321 18.2 43.4321 21.4C43.4321 24.6 45.8161 27.32 49.3361 27.32C51.3681 27.32 53.0161 26.408 54.0561 25.032L52.5841 23.896C51.8801 24.904 50.7441 25.592 49.3361 25.592ZM59.5958 18.616C56.9878 18.616 55.2118 20.584 55.2118 22.968C55.2118 25.352 56.9878 27.32 59.5958 27.32C62.2198 27.32 63.9798 25.352 63.9798 22.968C63.9798 20.584 62.2198 18.616 59.5958 18.616ZM59.6118 25.768C58.0598 25.768 56.9398 24.52 56.9398 22.968C56.9398 21.416 58.0598 20.168 59.6118 20.168C61.1318 20.168 62.2518 21.4 62.2518 22.968C62.2518 24.504 61.1318 25.768 59.6118 25.768ZM69.8614 18.616C67.2534 18.616 65.4774 20.584 65.4774 22.968C65.4774 25.352 67.2534 27.32 69.8614 27.32C72.4854 27.32 74.2454 25.352 74.2454 22.968C74.2454 20.584 72.4854 18.616 69.8614 18.616ZM69.8774 25.768C68.3254 25.768 67.2054 24.52 67.2054 22.968C67.2054 21.416 68.3254 20.168 69.8774 20.168C71.3974 20.168 72.5174 21.4 72.5174 22.968C72.5174 24.504 71.3974 25.768 69.8774 25.768ZM76.3049 27H77.9529V21.624C78.3689 20.936 79.0409 20.392 80.0649 20.392C80.4009 20.392 80.6569 20.44 80.9129 20.504V18.888C80.7049 18.824 80.4649 18.776 80.2089 18.776C79.2169 18.776 78.5129 19.224 77.9529 19.848V18.936H76.3049V27ZM81.6649 22.968C81.6649 25.32 83.2489 27.32 85.7929 27.32C86.9449 27.32 87.8089 26.904 88.4809 26.184V27H90.1609V15H88.4809V19.752C87.8089 19.032 86.9449 18.616 85.7929 18.616C83.2489 18.616 81.6649 20.616 81.6649 22.968ZM83.4089 22.968C83.4089 21.384 84.4489 20.168 86.0009 20.168C87.0089 20.168 87.8889 20.632 88.4809 21.512V24.424C87.9369 25.272 87.0409 25.768 86.0009 25.768C84.4489 25.768 83.4089 24.552 83.4089 22.968ZM93.6526 17.144C94.2606 17.144 94.7726 16.632 94.7726 16.024C94.7726 15.416 94.2606 14.904 93.6526 14.904C93.0446 14.904 92.5326 15.416 92.5326 16.024C92.5326 16.632 93.0446 17.144 93.6526 17.144ZM92.8206 27H94.4686V18.936H92.8206V27ZM97.1643 27H98.8123V21.56C99.2283 20.856 99.8843 20.168 100.988 20.168C102.14 20.168 102.844 20.936 102.844 22.216V27H104.508V22.152C104.508 19.816 103.148 18.616 101.372 18.616C100.22 18.616 99.4203 19.08 98.8123 19.72V18.936H97.1643V27ZM109.295 27.24C110.287 27.24 111.295 26.792 111.871 26.088V27H113.519V21.672C113.519 19.896 112.319 18.616 110.143 18.616C108.703 18.616 107.551 19.224 106.831 20.184L108.063 21.128C108.527 20.472 109.215 20.072 110.095 20.072C111.135 20.072 111.871 20.68 111.871 21.672V22.088L109.263 22.52C107.551 22.808 106.607 23.688 106.607 24.904C106.607 26.328 107.695 27.24 109.295 27.24ZM108.271 24.84C108.271 24.232 108.687 23.8 109.695 23.624L111.871 23.256V24.648C111.391 25.416 110.607 25.896 109.599 25.896C108.767 25.896 108.271 25.464 108.271 24.84ZM116.582 24.2C116.582 26.168 117.574 27.16 119.462 27.16C120.086 27.16 120.534 27.08 120.918 26.92V25.464C120.63 25.576 120.262 25.64 119.718 25.64C118.822 25.64 118.246 25.288 118.246 24.2V20.424H120.918V18.936H118.246V16.92H116.582V18.936H115.062V20.424H116.582V24.2ZM130.007 25.688L128.807 24.728C128.311 25.4 127.495 25.832 126.519 25.832C124.967 25.832 123.895 24.92 123.783 23.16H129.735C129.799 22.92 129.847 22.552 129.847 22.184C129.847 20.136 128.407 18.616 126.183 18.616C123.623 18.616 122.087 20.552 122.087 22.968C122.087 25.32 123.735 27.32 126.519 27.32C128.023 27.32 129.255 26.696 130.007 25.688ZM126.151 19.992C127.447 19.992 128.167 20.92 128.199 21.928H123.863C124.119 20.68 124.951 19.992 126.151 19.992ZM137.371 23.544C137.371 24.936 136.619 25.768 135.387 25.768C134.123 25.768 133.387 24.936 133.387 23.544V18.936H131.723V23.464C131.723 25.88 133.115 27.32 135.387 27.32C137.643 27.32 139.035 25.88 139.035 23.464V18.936H137.371V23.544ZM141.539 27H143.187V21.624C143.603 20.936 144.275 20.392 145.299 20.392C145.635 20.392 145.891 20.44 146.147 20.504V18.888C145.939 18.824 145.699 18.776 145.443 18.776C144.451 18.776 143.747 19.224 143.187 19.848V18.936H141.539V27Z" fill="#000091"/>
</svg>
